Coordinates
version=1
nRows=38
nColumns=38
inDegrees=no

Units are S.I. units (second, meters, Newtons, ...)
If the header above contains a line with 'inDegrees', this indicates whether rotational values are in degrees (yes) or radians (no).

endheader
time	pelvis_tilt	pelvis_list	pelvis_rotation	pelvis_tx	pelvis_ty	pelvis_tz	hip_flexion_r	hip_adduction_r	hip_rotation_r	knee_angle_r	ankle_angle_r	subtalar_angle_r	mtp_angle_r	hip_flexion_l	hip_adduction_l	hip_rotation_l	knee_angle_l	ankle_angle_l	subtalar_angle_l	mtp_angle_l	lumbar_extension	lumbar_bending	lumbar_rotation	arm_flex_r	arm_add_r	arm_rot_r	elbow_flex_r	pro_sup_r	wrist_flex_r	wrist_dev_r	arm_flex_l	arm_add_l	arm_rot_l	elbow_flex_l	pro_sup_l	wrist_flex_l	wrist_dev_l
1.75	-3.07566	1.32076	-1.58181	0.816818	0.925361	0.950376	0.229896	-0.128021	-0.353867	0.370995	0.122117	0	0	-0.383112	0.0822434	-0.241136	0.101531	0.0969009	0	0	-0.347809	-0.0210009	-0.010182	0.583252	-0.483575	0.326727	1.07766	0.721417	0	0	0.50936	-0.439474	0.118363	1.26077	1.09797	0	0
1.76	-3.07917	1.32812	-1.57874	0.817697	0.935003	0.948089	0.219717	-0.109592	-0.357137	0.291553	0.116028	0	0	-0.385064	0.0790197	-0.245571	0.106197	0.111191	0	0	-0.349069	-0.0181784	-0.0173661	0.588279	-0.480632	0.329474	1.09213	0.721264	0	0	0.493972	-0.445771	0.0959441	1.28695	1.10306	0	0
1.77	-3.08338	1.33244	-1.57473	0.818563	0.944142	0.945942	0.203685	-0.0892758	-0.348888	0.20872	0.105268	0	0	-0.38958	0.0754659	-0.249166	0.111169	0.12531	0	0	-0.344733	-0.0179822	-0.0157819	0.588488	-0.479786	0.32763	1.09024	0.725518	0	0	0.496696	-0.443557	0.0930543	1.28342	1.11917	0	0
1.78	-3.08295	1.33601	-1.57493	0.819379	0.953466	0.943613	0.185138	-0.0707048	-0.333384	0.127912	0.0919714	0	0	-0.395878	0.0733416	-0.251464	0.114471	0.138309	0	0	-0.340446	-0.0189878	-0.0141267	0.588098	-0.479691	0.325907	1.08905	0.725591	0	0	0.500536	-0.441656	0.093573	1.27963	1.12227	0	0
1.79	-3.07872	1.33797	-1.57817	0.820146	0.963059	0.941243	0.162411	-0.0540956	-0.311496	0.0492432	0.0722253	0	0	-0.404691	0.0719871	-0.253198	0.117011	0.151195	0	0	-0.336819	-0.0209976	-0.0123095	0.586944	-0.47998	0.323708	1.0872	0.725103	0	0	0.50583	-0.439211	0.0968487	1.2745	1.12192	0	0
1.8	-3.06603	1.34158	-1.58935	0.820753	0.972933	0.938595	0.151	-0.0452709	-0.306848	4.41932e-09	0.0616759	0	0	-0.411931	0.0726725	-0.253151	0.119535	0.163124	0	0	-0.330756	-0.0245041	-0.0116797	0.585997	-0.479844	0.32312	1.08391	0.724877	0	0	0.509169	-0.436194	0.0983977	1.27012	1.11939	0	0
1.81	-3.06547	1.3438	-1.58965	0.821099	0.981995	0.936	0.159196	-0.0393504	-0.314429	0	0.0576547	0	0	-0.412266	0.0748552	-0.250399	0.135774	0.175188	0	0	-0.318333	-0.0263155	-0.00433926	0.583494	-0.478596	0.31949	1.06275	0.742867	0	0	0.524345	-0.427737	0.122187	1.24261	1.04996	0	0
1.82	-3.0614	1.34195	-1.5918	0.821336	0.992034	0.933921	0.157023	-0.0362378	-0.324972	0	0.0560707	0	0	-0.427498	0.0740795	-0.242404	0.134313	0.18239	0	0	-0.318237	-0.0264235	-0.00499149	0.585917	-0.479837	0.324661	1.05896	0.72925	0	0	0.524904	-0.422178	0.11597	1.23898	1.08378	0	0
1.83	-3.06148	1.34206	-1.58831	0.821491	1.00293	0.931676	0.152641	-0.0312576	-0.337244	0	0.0564814	0	0	-0.437945	0.0701261	-0.242381	0.140644	0.194952	0	0	-0.324928	-0.0238275	-0.0121256	0.601298	-0.45765	0.172224	1.0012	1.41671	0	0	0.512394	-0.421351	0.0886812	1.26188	1.15537	0	0
1.84	-3.05968	1.34139	-1.58527	0.821509	1.01386	0.929705	0.143846	-0.026397	-0.347123	0	0.0543342	0	0	-0.448396	0.0659298	-0.239992	0.147733	0.204087	0	0	-0.322268	-0.0210997	-0.0181257	0.600045	-0.47582	0.305632	1.04555	0.826983	0	0	0.506966	-0.420378	0.0850702	1.26265	1.12671	0	0
1.85	-3.0582	1.34027	-1.58005	0.821476	1.02499	0.92795	0.13085	-0.0210737	-0.356245	0	0.050282	0	0	-0.456852	0.059859	-0.239592	0.160075	0.214101	0	0	-0.319691	-0.0205522	-0.0219073	0.591267	-0.478983	0.323529	1.05825	0.792047	0	0	0.506744	-0.416161	0.0837103	1.26005	1.13662	0	0
1.86	-3.05828	1.33831	-1.5734	0.821504	1.03625	0.926434	0.121415	-0.0200828	-0.373809	0.0184321	0.0549706	0	0	-0.463641	0.0463648	-0.244661	0.184814	0.234376	0	0	-0.319894	-0.0198744	-0.0215244	0.599476	-0.462347	0.160468	0.994037	1.47473	0	0	0.51044	-0.410015	0.0866068	1.25642	1.15527	0	0
1.87	-3.06034	1.33371	-1.56304	0.821185	1.04786	0.925156	0.11402	-0.020681	-0.390115	0.0517262	0.0649095	0	0	-0.476229	0.0375966	-0.254354	0.19139	0.24114	0	0	-0.32025	-0.0154047	-0.030184	0.586791	-0.484249	0.322834	1.05843	0.791034	0	0	0.504987	-0.409773	0.083006	1.25648	1.14953	0	0
1.88	-3.06784	1.33183	-1.54803	0.820971	1.05941	0.92374	0.112514	-0.0211017	-0.410162	0.086475	0.0884637	0	0	-0.479318	0.0261802	-0.259147	0.216077	0.252775	0	0	-0.319841	-0.0112304	-0.0325444	0.594386	-0.467188	0.165133	0.996142	1.45468	0	0	0.505431	-0.405829	0.0841609	1.25429	1.1687	0	0
1.89	-3.08801	1.32704	-1.52105	0.82118	1.07107	0.922874	0.0956609	-0.00953008	-0.401408	0.0828415	0.0874202	0	0	-0.484543	0.0105043	-0.264065	0.242545	0.261599	0	0	-0.321189	-0.00180972	-0.0401884	0.583191	-0.492029	0.336228	1.06788	0.715599	0	0	0.49847	-0.40624	0.0790229	1.25464	1.16577	0	0
1.9	-3.10731	1.32445	-1.49695	0.821774	1.08235	0.922318	0.0810398	0.00343615	-0.381809	0.0695908	0.0583958	0	0	-0.484381	-0.00489427	-0.267246	0.272647	0.265547	0	0	-0.31304	0.00325308	-0.0362694	0.575262	-0.492236	0.329656	1.05536	0.723299	0	0	0.506749	-0.397896	0.0935484	1.22787	1.16593	0	0
1.91	-3.12988	1.32252	-1.47199	0.822876	1.09418	0.921656	0.065831	0.0168595	-0.359486	0.0524181	0.00705259	0	0	-0.480748	-0.0227786	-0.278328	0.310134	0.268674	0	0	-0.312589	0.0105371	-0.0362214	0.570397	-0.492979	0.326033	1.05967	0.724965	0	0	0.502713	-0.39706	0.0932549	1.22662	1.16553	0	0
1.92	3.1325	1.32052	-1.4509	0.824353	1.1066	0.920889	0.0544675	0.0267752	-0.348489	0.046882	-0.040583	0	0	-0.475239	-0.0416989	-0.294028	0.353436	0.269064	0	0	-0.320712	0.0191364	-0.0419659	0.570763	-0.492558	0.325766	1.07923	0.730372	0	0	0.484018	-0.404578	0.0749247	1.25455	1.16508	0	0
1.93	-3.13007	1.30497	-1.45604	0.822548	1.11728	0.92248	0.0319556	0.0190422	-0.364622	0.0589429	-0.0697075	0	0	-0.478613	-0.0522547	-0.27803	0.397519	0.253864	0	0	-0.339386	0.0235093	-0.0578457	0.57485	-0.494324	0.327242	1.08294	0.733995	0	0	0.480729	-0.403488	0.0700932	1.25803	1.16377	0	0
1.94	3.13871	1.29864	-1.43985	0.823529	1.1289	0.923079	0.027433	0.0215734	-0.374233	0.0865495	-0.0821908	0	0	-0.467909	-0.0718989	-0.282606	0.452608	0.237465	0	0	-0.335212	0.0268317	-0.0514276	0.567976	-0.495443	0.324471	1.07059	0.73458	0	0	0.488046	-0.396435	0.0849608	1.23386	1.16261	0	0
1.95	3.0388	1.27903	-1.35846	0.829943	1.1423	0.924435	0.0063638	0.0642206	-0.361916	0.0986891	-0.100402	0	0	-0.469372	-0.127549	-0.340228	0.52034	0.218208	0	0	-0.357665	0.0521572	-0.0349722	0.571683	-0.491998	0.32734	1.08716	0.747855	0	0	0.469154	-0.409858	0.0709853	1.26699	1.1361	0	0
1.96	3.04509	1.29905	-1.36057	0.829339	1.15406	0.922257	0.037367	0.0474124	-0.37884	0.147109	-0.0812461	0	0	-0.414141	-0.138713	-0.323946	0.60031	0.186082	0	0	-0.334285	0.0507982	-0.0414685	0.568053	-0.49351	0.329971	1.08772	0.747112	0	0	0.457063	-0.405753	0.0644078	1.26796	1.14237	0	0
1.97	3.00743	1.29805	-1.32703	0.831121	1.16533	0.922454	0.0408287	0.0557125	-0.384945	0.177113	-0.0709009	0	0	-0.378617	-0.168682	-0.324032	0.680114	0.137397	0	0	-0.33416	0.0604418	-0.0320935	0.577749	-0.468503	0.136137	1.02371	1.5708	0	0	0.455049	-0.402596	0.0657999	1.26941	1.14552	0	0
1.98	2.9725	1.29473	-1.29659	0.832793	1.17577	0.922869	0.0416786	0.0638381	-0.391777	0.204838	-0.0605981	0	0	-0.339979	-0.197057	-0.316118	0.761611	0.0738004	0	0	-0.326597	0.0694211	-0.020921	0.565032	-0.500165	0.33247	1.0762	0.750749	0	0	0.462962	-0.395764	0.0782731	1.24443	1.1529	0	0
1.99	2.93578	1.29569	-1.26298	0.834803	1.18741	0.922639	0.0441287	0.0725622	-0.402005	0.228524	-0.0499663	0	0	-0.295613	-0.225626	-0.303485	0.839666	0.0026496	0	0	-0.332456	0.0807528	-0.0216251	0.582106	-0.472477	0.154917	1.02515	1.5708	0	0	0.444406	-0.402549	0.0586308	1.27626	1.16004	0	0
2	2.90518	1.2944	-1.23611	0.83665	1.19825	0.922546	0.0440338	0.0803645	-0.411433	0.249781	-0.0404772	0	0	-0.251348	-0.250476	-0.286064	0.915346	-0.0744728	0	0	-0.331077	0.0902113	-0.0208858	0.577806	-0.500969	0.349352	1.093	0.738395	0	0	0.435545	-0.406538	0.052933	1.28348	1.15598	0	0
2.01	2.88483	1.29136	-1.21871	0.838423	1.20894	0.922753	0.037881	0.0888042	-0.410899	0.263621	-0.0307873	0	0	-0.210018	-0.271437	-0.267356	0.985297	-0.145356	0	0	-0.333756	0.0956441	-0.0161509	0.579958	-0.5025	0.351465	1.09465	0.740908	0	0	0.43309	-0.409082	0.0533977	1.28959	1.15655	0	0
2.02	2.87926	1.28901	-1.21482	0.839928	1.21943	0.923177	0.0318697	0.0918832	-0.411747	0.280395	-0.0157575	0	0	-0.168838	-0.284728	-0.245298	1.05045	-0.206954	0	0	-0.338543	0.0954418	-0.00906116	0.589149	-0.475891	0.157084	1.03065	1.56661	0	0	0.436125	-0.410397	0.0597688	1.29468	1.15329	0	0
2.03	2.91183	1.2798	-1.24393	0.838789	1.22973	0.925176	0.012426	0.082291	-0.417108	0.294737	-0.00332723	0	0	-0.141521	-0.277429	-0.214348	1.10113	-0.243457	0	0	-0.353126	0.0930357	-0.0116741	0.592317	-0.480232	0.15593	1.03423	1.5708	0	0	0.435118	-0.407824	0.0576344	1.29773	1.15379	0	0
2.04	2.93646	1.27455	-1.26972	0.840007	1.23936	0.926639	0.000684551	0.077492	-0.410687	0.309585	0.00527503	0	0	-0.109565	-0.271812	-0.189177	1.14911	-0.254682	0	0	-0.364829	0.0853283	-0.00928578	0.593496	-0.480123	0.153624	1.03717	1.5708	0	0	0.438553	-0.409868	0.0588678	1.30104	1.15277	0	0
2.05	2.96295	1.27001	-1.29657	0.841147	1.2488	0.928293	-0.0110821	0.0723721	-0.402372	0.322126	0.0116025	0	0	-0.0774051	-0.261995	-0.162494	1.19323	-0.243505	0	0	-0.375676	0.076404	-0.0076919	0.594565	-0.479362	0.150205	1.03825	1.5708	0	0	0.443391	-0.411195	0.0613176	1.30189	1.15013	0	0
2.06	2.99017	1.26739	-1.32282	0.841997	1.25801	0.929963	-0.0213729	0.0662767	-0.395062	0.333217	0.0188513	0	0	-0.0422845	-0.248088	-0.133235	1.23695	-0.212432	0	0	-0.384129	0.0671297	-0.00784189	0.596288	-0.478021	0.147108	1.03785	1.5708	0	0	0.448885	-0.411571	0.0636502	1.30044	1.14697	0	0
2.07	3.01619	1.2659	-1.34795	0.84267	1.26714	0.931704	-0.0321345	0.0605689	-0.387466	0.34049	0.0268824	0	0	-0.00680038	-0.231627	-0.104641	1.27697	-0.171604	0	0	-0.390644	0.0582954	-0.0085185	0.598901	-0.476813	0.14681	1.03571	1.5708	0	0	0.453869	-0.4103	0.0619152	1.29718	1.15452	0	0
2.08	3.03936	1.26507	-1.37106	0.843274	1.27629	0.933515	-0.0443671	0.0560035	-0.380391	0.34296	0.0342252	0	0	0.0272375	-0.214687	-0.0794472	1.31034	-0.132379	0	0	-0.395555	0.0503221	-0.00871808	0.601484	-0.475912	0.148705	1.03279	1.5708	0	0	0.457542	-0.408095	0.0611611	1.29382	1.15054	0	0
2.09	3.05994	1.26495	-1.39328	0.844004	1.28551	0.935371	-0.0579686	0.0526105	-0.374116	0.340769	0.0409032	0	0	0.0594004	-0.19734	-0.0576588	1.3351	-0.10055	0	0	-0.399007	0.0423663	-0.00778282	0.603446	-0.474491	0.148949	1.02986	1.5708	0	0	0.460206	-0.405565	0.0605291	1.29028	1.14549	0	0
2.1	3.09223	1.26066	-1.43045	0.844769	1.29512	0.93799	-0.0803945	0.046032	-0.365796	0.332254	0.04601	0	0	0.0800059	-0.17733	-0.0458333	1.34798	-0.0796999	0	0	-0.406023	0.0313406	-0.00387826	0.604769	-0.474014	0.150314	1.02708	1.5708	0	0	0.4619	-0.402432	0.0576414	1.28562	1.15314	0	0
2.11	3.11187	1.26134	-1.45357	0.845625	1.30446	0.939874	-0.0968117	0.042979	-0.35983	0.322462	0.050426	0	0	0.108489	-0.160974	-0.031907	1.35897	-0.0617002	0	0	-0.407125	0.023498	-0.000436887	0.604888	-0.473436	0.150614	1.02536	1.5708	0	0	0.464029	-0.400402	0.056236	1.28009	1.15771	0	0
2.12	3.12969	1.26351	-1.47572	0.846539	1.31368	0.941616	-0.111615	0.0400935	-0.352917	0.311716	0.0547209	0	0	0.137363	-0.145915	-0.0214399	1.36477	-0.0460207	0	0	-0.406416	0.0158754	0.00455501	0.604218	-0.473799	0.152116	1.02446	1.5708	0	0	0.466809	-0.398549	0.0579923	1.27442	1.1575	0	0
